<svg width="207" height="200" viewBox="0 0 207 200" fill="none" xmlns="http://www.w3.org/2000/svg">
<path d="M161.022 -32L146.705 -11.2444C154.044 -7.6307 161.022 9.5112 161.022 9.5112C161.022 9.5112 168.001 -7.6307 175.34 -11.2444L161.022 -32Z" fill="#6B8C86" fill-opacity="0.65"/>
<path d="M161.022 11.1797L157.15 21.9744L161.022 32.7692L164.85 21.9744L161.022 11.1797Z" fill="#6B8C86" fill-opacity="0.65"/>
<path d="M142.788 -6.79492L142.428 -6.65594C141.482 -4.98808 138.555 2.14664 145.354 15.7675L153.414 19.0106L156.655 10.7639C151.658 -3.64454 144.634 -6.33163 142.788 -6.79492Z" fill="#6B8C86" fill-opacity="0.65"/>
<path d="M112.216 -11.1973L116.358 13.867C124.012 11.0872 140.716 18.1293 140.716 18.1293C140.716 18.1293 133.873 0.941031 136.574 -6.93498L112.216 -11.1973Z" fill="#6B8C86" fill-opacity="0.65"/>
<path d="M141.887 19.334L146.57 29.7581L156.745 34.5764L152.018 24.1523L141.887 19.334Z" fill="#6B8C86" fill-opacity="0.65"/>
<path d="M116.674 19.8891L116.539 20.2597C117.034 22.1129 119.87 29.294 134.008 34.0196L141.932 30.4522L138.556 22.2519C125.093 15.6731 118.295 18.8699 116.674 19.8891Z" fill="#6B8C86" fill-opacity="0.65"/>
<path d="M92 38.9789L112.171 53.7116C115.683 46.1599 132.342 38.9789 132.342 38.9789C132.342 38.9789 115.683 31.7978 112.171 24.2461L92 38.9789Z" fill="#6B8C86" fill-opacity="0.65"/>
<path d="M133.963 38.9751L144.454 42.9594L154.944 38.9751L144.454 35.0371L133.963 38.9751Z" fill="#6B8C86" fill-opacity="0.65"/>
<path d="M116.493 57.7382L116.628 58.1089C118.249 59.0818 125.183 62.0932 138.42 55.0974L141.572 46.8044L133.557 43.4688C119.6 48.6113 116.988 55.8387 116.493 57.7382Z" fill="#6B8C86" fill-opacity="0.65"/>
<path d="M112.216 89.1996L136.574 84.9373C133.873 77.0613 140.716 59.873 140.716 59.873C140.716 59.873 123.967 66.9151 116.313 64.1354L112.216 89.1996Z" fill="#6B8C86" fill-opacity="0.65"/>
<path d="M141.887 58.6682L152.018 53.8499L156.745 43.4258L146.57 48.2441L141.887 58.6682Z" fill="#6B8C86" fill-opacity="0.65"/>
<path d="M142.427 84.61L142.788 84.749C144.589 84.2393 151.567 81.3206 156.16 66.7731L152.693 58.6191L144.724 62.0939C138.33 75.9464 141.437 82.9421 142.427 84.61Z" fill="#6B8C86" fill-opacity="0.65"/>
<path d="M161.022 110.001L175.34 89.2458C168.001 85.6321 161.022 68.4902 161.022 68.4902C161.022 68.4902 154.044 85.6321 146.705 89.2458L161.022 110.001Z" fill="#6B8C86" fill-opacity="0.65"/>
<path d="M161.022 66.8219L164.85 56.0272L161.022 45.2324L157.15 56.0272L161.022 66.8219Z" fill="#6B8C86" fill-opacity="0.65"/>
<path d="M179.212 84.7957L179.572 84.6567C180.518 82.9889 183.445 75.8542 176.646 62.2333L168.586 58.9902L165.345 67.2369C170.342 81.6453 177.366 84.3324 179.212 84.7957Z" fill="#6B8C86" fill-opacity="0.65"/>
<path d="M209.784 89.1996L205.642 64.1354C197.988 66.9151 181.284 59.873 181.284 59.873C181.284 59.873 188.127 77.0613 185.426 84.9373L209.784 89.1996Z" fill="#6B8C86" fill-opacity="0.65"/>
<path d="M180.113 58.6682L175.43 48.2441L165.3 43.4258L169.982 53.8499L180.113 58.6682Z" fill="#6B8C86" fill-opacity="0.65"/>
<path d="M205.327 58.111L205.462 57.7403C204.966 55.8871 202.13 48.7061 187.992 43.9805L180.068 47.5478L183.445 55.7482C196.907 62.327 203.706 59.1302 205.327 58.111Z" fill="#6B8C86" fill-opacity="0.65"/>
<path d="M230 38.9789L209.829 24.2461C206.317 31.7978 189.658 38.9789 189.658 38.9789C189.658 38.9789 206.317 46.1599 209.829 53.7116L230 38.9789Z" fill="#6B8C86" fill-opacity="0.65"/>
<path d="M188.037 38.9751L177.546 35.0371L167.056 38.9751L177.546 42.9594L188.037 38.9751Z" fill="#6B8C86" fill-opacity="0.65"/>
<path d="M205.506 20.2575L205.371 19.8868C203.75 18.9139 196.817 15.9025 183.579 22.8983L180.428 31.1912L188.442 34.5269C202.445 29.3844 205.056 22.157 205.506 20.2575Z" fill="#6B8C86" fill-opacity="0.65"/>
<path d="M209.784 -11.1973L185.426 -6.93498C188.127 0.941031 181.284 18.1293 181.284 18.1293C181.284 18.1293 197.988 11.0872 205.642 13.867L209.784 -11.1973Z" fill="#6B8C86" fill-opacity="0.65"/>
<path d="M180.113 19.334L169.982 24.1523L165.3 34.5764L175.43 29.7581L180.113 19.334Z" fill="#6B8C86" fill-opacity="0.65"/>
<path d="M179.573 -6.61102L179.213 -6.75C177.412 -6.24038 170.433 -3.32162 165.84 11.2258L169.307 19.3798L177.277 15.9051C183.67 2.05261 180.563 -4.94316 179.573 -6.61102Z" fill="#6B8C86" fill-opacity="0.65"/>
<path d="M161.023 42.2185C162.763 42.2185 164.175 40.7666 164.175 38.9755C164.175 37.1844 162.763 35.7324 161.023 35.7324C159.282 35.7324 157.871 37.1844 157.871 38.9755C157.871 40.7666 159.282 42.2185 161.023 42.2185Z" fill="#6B8C86" fill-opacity="0.65"/>
<path d="M43.5139 -4.63281L41.0728 2.20887L43.5139 9.05055L45.9266 2.20887L43.5139 -4.63281Z" fill="#6B8C86" fill-opacity="0.65"/>
<path d="M32.0182 -16.0254L31.7911 -15.9373C31.195 -14.8802 29.35 -10.3583 33.6362 -1.7254L38.7171 0.330038L40.7608 -4.89665C37.6101 -14.0287 33.182 -15.7318 32.0182 -16.0254Z" fill="#6B8C86" fill-opacity="0.65"/>
<path d="M31.4507 0.535156L34.4027 7.14193L40.8177 10.1957L37.8373 3.58896L31.4507 0.535156Z" fill="#6B8C86" fill-opacity="0.65"/>
<path d="M15.5549 0.886598L15.4697 1.1215C15.782 2.29604 17.5702 6.84738 26.4831 9.84245L31.4788 7.58146L29.35 2.38413C20.8629 -1.78548 16.5767 0.240602 15.5549 0.886598Z" fill="#6B8C86" fill-opacity="0.65"/>
<path d="M0 12.986L12.7165 22.3236C14.9305 17.5373 25.4329 12.986 25.4329 12.986C25.4329 12.986 14.9305 8.43468 12.7165 3.64844L0 12.986Z" fill="#6B8C86" fill-opacity="0.65"/>
<path d="M26.4546 12.9842L33.0683 15.5094L39.682 12.9842L33.0683 10.4883L26.4546 12.9842Z" fill="#6B8C86" fill-opacity="0.65"/>
<path d="M15.4414 24.876L15.5266 25.1109C16.5484 25.7275 20.9197 27.6361 29.2649 23.2023L31.2518 17.9462L26.1993 15.832C17.4 19.0914 15.7536 23.6721 15.4414 24.876Z" fill="#6B8C86" fill-opacity="0.65"/>
<path d="M12.7446 44.8156L28.1009 42.1142C26.3978 37.1224 30.7123 26.2285 30.7123 26.2285C30.7123 26.2285 20.1531 30.6918 15.3277 28.93L12.7446 44.8156Z" fill="#6B8C86" fill-opacity="0.65"/>
<path d="M31.4507 25.4653L37.8373 22.4115L40.8177 15.8047L34.4027 18.8585L31.4507 25.4653Z" fill="#6B8C86" fill-opacity="0.65"/>
<path d="M31.7911 41.9065L32.0182 41.9946C33.1536 41.6716 37.5533 39.8217 40.4485 30.6016L38.2629 25.4336L33.2388 27.6359C29.2081 36.4155 31.1667 40.8494 31.7911 41.9065Z" fill="#6B8C86" fill-opacity="0.65"/>
<path d="M43.5142 58.0011L52.5406 44.8462C47.9139 42.5559 43.5142 31.6914 43.5142 31.6914C43.5142 31.6914 39.1145 42.5559 34.4878 44.8462L43.5142 58.0011Z" fill="#6B8C86" fill-opacity="0.65"/>
<path d="M43.5139 30.6326L45.9266 23.7909L43.5139 16.9492L41.0728 23.7909L43.5139 30.6326Z" fill="#6B8C86" fill-opacity="0.65"/>
<path d="M54.9813 42.0254L55.2084 41.9373C55.8045 40.8802 57.6495 36.3582 53.3634 27.7254L48.2825 25.6699L46.2388 30.8966C49.3895 40.0286 53.8176 41.7317 54.9813 42.0254Z" fill="#6B8C86" fill-opacity="0.65"/>
<path d="M74.2553 44.8156L71.6439 28.93C66.8184 30.6918 56.2876 26.2285 56.2876 26.2285C56.2876 26.2285 60.6021 37.1224 58.899 42.1142L74.2553 44.8156Z" fill="#6B8C86" fill-opacity="0.65"/>
<path d="M55.5491 25.4653L52.5971 18.8585L46.2104 15.8047L49.1625 22.4115L55.5491 25.4653Z" fill="#6B8C86" fill-opacity="0.65"/>
<path d="M71.445 25.1121L71.5301 24.8772C71.2179 23.7027 69.4296 19.1513 60.5168 16.1562L55.521 18.4172L57.6499 23.6146C66.137 27.7842 70.4231 25.7581 71.445 25.1121Z" fill="#6B8C86" fill-opacity="0.65"/>
<path d="M86.9998 12.986L74.2834 3.64844C72.0693 8.43468 61.5669 12.986 61.5669 12.986C61.5669 12.986 72.0693 17.5373 74.2834 22.3236L86.9998 12.986Z" fill="#6B8C86" fill-opacity="0.65"/>
<path d="M60.5448 12.9842L53.9311 10.4883L47.3174 12.9842L53.9311 15.5094L60.5448 12.9842Z" fill="#6B8C86" fill-opacity="0.65"/>
<path d="M71.5585 1.11985L71.4733 0.884943C70.4515 0.268311 66.0802 -1.64031 57.735 2.79357L55.748 8.04963L60.8006 10.1638C69.6283 6.90444 71.2746 2.32375 71.5585 1.11985Z" fill="#6B8C86" fill-opacity="0.65"/>
<path d="M55.5491 0.535156L49.1625 3.58896L46.2104 10.1957L52.5971 7.14193L55.5491 0.535156Z" fill="#6B8C86" fill-opacity="0.65"/>
<path d="M55.2087 -15.91L54.9816 -15.998C53.8462 -15.675 49.4465 -13.8252 46.5513 -4.60503L48.7369 0.562948L53.7611 -1.63931C57.7917 -10.419 55.8332 -14.8529 55.2087 -15.91Z" fill="#6B8C86" fill-opacity="0.65"/>
<path d="M43.5143 15.0386C44.6117 15.0386 45.5012 14.1184 45.5012 12.9832C45.5012 11.848 44.6117 10.9277 43.5143 10.9277C42.4169 10.9277 41.5273 11.848 41.5273 12.9832C41.5273 14.1184 42.4169 15.0386 43.5143 15.0386Z" fill="#6B8C86" fill-opacity="0.65"/>
<path d="M204.514 110L195.488 123.155C200.115 125.445 204.514 136.31 204.514 136.31C204.514 136.31 208.914 125.445 213.541 123.155L204.514 110Z" fill="#6B8C86" fill-opacity="0.65"/>
<path d="M204.514 137.367L202.073 144.209L204.514 151.051L206.927 144.209L204.514 137.367Z" fill="#6B8C86" fill-opacity="0.65"/>
<path d="M193.018 125.975L192.791 126.063C192.195 127.12 190.35 131.642 194.636 140.275L199.717 142.33L201.761 137.103C198.61 127.971 194.182 126.268 193.018 125.975Z" fill="#6B8C86" fill-opacity="0.65"/>
<path d="M173.745 123.186L176.356 139.071C181.181 137.309 191.712 141.773 191.712 141.773C191.712 141.773 187.398 130.879 189.101 125.887L173.745 123.186Z" fill="#6B8C86" fill-opacity="0.65"/>
<path d="M192.451 142.535L195.403 149.142L201.818 152.196L198.837 145.589L192.451 142.535Z" fill="#6B8C86" fill-opacity="0.65"/>
<path d="M176.555 142.887L176.47 143.122C176.782 144.296 178.57 148.847 187.483 151.842L192.479 149.581L190.35 144.384C181.863 140.215 177.577 142.241 176.555 142.887Z" fill="#6B8C86" fill-opacity="0.65"/>
<path d="M161 154.986L173.716 164.324C175.93 159.537 186.433 154.986 186.433 154.986C186.433 154.986 175.93 150.435 173.716 145.648L161 154.986Z" fill="#6B8C86" fill-opacity="0.65"/>
<path d="M187.455 154.984L194.068 157.509L200.682 154.984L194.068 152.488L187.455 154.984Z" fill="#6B8C86" fill-opacity="0.65"/>
<path d="M176.441 166.876L176.527 167.111C177.548 167.728 181.92 169.636 190.265 165.202L192.252 159.946L187.199 157.832C178.4 161.091 176.754 165.672 176.441 166.876Z" fill="#6B8C86" fill-opacity="0.65"/>
<path d="M173.745 186.816L189.101 184.114C187.398 179.122 191.712 168.229 191.712 168.229C191.712 168.229 181.153 172.692 176.328 170.93L173.745 186.816Z" fill="#6B8C86" fill-opacity="0.65"/>
<path d="M192.451 167.465L198.837 164.411L201.818 157.805L195.403 160.858L192.451 167.465Z" fill="#6B8C86" fill-opacity="0.65"/>
<path d="M192.791 183.907L193.018 183.995C194.154 183.672 198.553 181.822 201.449 172.602L199.263 167.434L194.239 169.636C190.208 178.416 192.167 182.849 192.791 183.907Z" fill="#6B8C86" fill-opacity="0.65"/>
<path d="M204.514 200.001L213.541 186.846C208.914 184.556 204.514 173.691 204.514 173.691C204.514 173.691 200.115 184.556 195.488 186.846L204.514 200.001Z" fill="#6B8C86" fill-opacity="0.65"/>
<path d="M204.514 172.633L206.927 165.791L204.514 158.949L202.073 165.791L204.514 172.633Z" fill="#6B8C86" fill-opacity="0.65"/>
<path d="M204.514 157.039C205.612 157.039 206.501 156.118 206.501 154.983C206.501 153.848 205.612 152.928 204.514 152.928C203.417 152.928 202.527 153.848 202.527 154.983C202.527 156.118 203.417 157.039 204.514 157.039Z" fill="#6B8C86" fill-opacity="0.65"/>
</svg>
