<svg width="115" height="110" viewBox="0 0 115 110" fill="none" xmlns="http://www.w3.org/2000/svg">
<path d="M46.0225 0L31.7047 20.7556C39.0437 24.3693 46.0225 41.5112 46.0225 41.5112C46.0225 41.5112 53.0013 24.3693 60.3403 20.7556L46.0225 0Z" fill="#6B8C86" fill-opacity="0.65"/>
<path d="M46.0224 43.1797L42.1503 53.9744L46.0224 64.7692L49.8494 53.9744L46.0224 43.1797Z" fill="#6B8C86" fill-opacity="0.65"/>
<path d="M27.7878 25.2051L27.4276 25.3441C26.4821 27.0119 23.5555 34.1466 30.3542 47.7675L38.4136 51.0106L41.6553 42.7639C36.6576 28.3555 29.6338 25.6684 27.7878 25.2051Z" fill="#6B8C86" fill-opacity="0.65"/>
<path d="M-2.78394 20.8027L1.35831 45.867C9.01247 43.0872 25.7166 50.1293 25.7166 50.1293C25.7166 50.1293 18.8728 32.941 21.5743 25.065L-2.78394 20.8027Z" fill="#6B8C86" fill-opacity="0.65"/>
<path d="M26.8871 51.334L31.5696 61.7581L41.7452 66.5764L37.0176 56.1523L26.8871 51.334Z" fill="#6B8C86" fill-opacity="0.65"/>
<path d="M1.67352 51.8891L1.53845 52.2597C2.03372 54.1129 4.87026 61.294 19.0079 66.0196L26.9323 62.4522L23.5554 54.2519C10.0931 47.6731 3.2944 50.8699 1.67352 51.8891Z" fill="#6B8C86" fill-opacity="0.65"/>
<path d="M-23 70.9789L-2.82904 85.7116C0.682865 78.1599 17.3419 70.9789 17.3419 70.9789C17.3419 70.9789 0.682865 63.7978 -2.82904 56.2461L-23 70.9789Z" fill="#6B8C86" fill-opacity="0.65"/>
<path d="M18.9628 70.9751L29.4535 74.9594L39.9442 70.9751L29.4535 67.0371L18.9628 70.9751Z" fill="#6B8C86" fill-opacity="0.65"/>
<path d="M1.49329 89.7382L1.62836 90.1089C3.24924 91.0818 10.183 94.0932 23.4202 87.0974L26.5719 78.8044L18.5576 75.4688C4.59997 80.6113 1.98856 87.8387 1.49329 89.7382Z" fill="#6B8C86" fill-opacity="0.65"/>
<path d="M-2.78394 121.2L21.5743 116.937C18.8728 109.061 25.7166 91.873 25.7166 91.873C25.7166 91.873 8.96745 98.9151 1.31329 96.1354L-2.78394 121.2Z" fill="#6B8C86" fill-opacity="0.65"/>
<path d="M26.8871 90.6682L37.0176 85.8499L41.7452 75.4258L31.5696 80.2441L26.8871 90.6682Z" fill="#6B8C86" fill-opacity="0.65"/>
<path d="M27.4273 116.61L27.7875 116.749C29.5885 116.239 36.5673 113.321 41.1598 98.7731L37.6929 90.6191L29.7236 94.0939C23.3301 107.946 26.4368 114.942 27.4273 116.61Z" fill="#6B8C86" fill-opacity="0.65"/>
<path d="M46.0225 142.001L60.3403 121.246C53.0013 117.632 46.0225 100.49 46.0225 100.49C46.0225 100.49 39.0437 117.632 31.7047 121.246L46.0225 142.001Z" fill="#6B8C86" fill-opacity="0.65"/>
<path d="M46.0224 98.8219L49.8494 88.0272L46.0224 77.2324L42.1503 88.0272L46.0224 98.8219Z" fill="#6B8C86" fill-opacity="0.65"/>
<path d="M64.2123 116.796L64.5725 116.657C65.518 114.989 68.4446 107.854 61.6459 94.2333L53.5865 90.9902L50.3447 99.2369C55.3424 113.645 62.3663 116.332 64.2123 116.796Z" fill="#6B8C86" fill-opacity="0.65"/>
<path d="M94.7842 121.2L90.6419 96.1354C82.9878 98.9151 66.2837 91.873 66.2837 91.873C66.2837 91.873 73.1274 109.061 70.4259 116.937L94.7842 121.2Z" fill="#6B8C86" fill-opacity="0.65"/>
<path d="M65.1129 90.6682L60.4303 80.2441L50.2998 75.4258L54.9824 85.8499L65.1129 90.6682Z" fill="#6B8C86" fill-opacity="0.65"/>
<path d="M90.3265 90.111L90.4615 89.7403C89.9663 87.8871 87.1297 80.7061 72.9921 75.9805L65.0677 79.5478L68.4446 87.7482C81.9069 94.327 88.7056 91.1302 90.3265 90.111Z" fill="#6B8C86" fill-opacity="0.65"/>
<path d="M115 70.9789L94.8292 56.2461C91.3173 63.7978 74.6582 70.9789 74.6582 70.9789C74.6582 70.9789 91.3173 78.1599 94.8292 85.7116L115 70.9789Z" fill="#6B8C86" fill-opacity="0.65"/>
<path d="M73.0372 70.9751L62.5465 67.0371L52.0558 70.9751L62.5465 74.9594L73.0372 70.9751Z" fill="#6B8C86" fill-opacity="0.65"/>
<path d="M90.5065 52.2575L90.3714 51.8868C88.7505 50.9139 81.8168 47.9025 68.5796 54.8983L65.4279 63.1912L73.4422 66.5269C87.4448 61.3844 90.0562 54.157 90.5065 52.2575Z" fill="#6B8C86" fill-opacity="0.65"/>
<path d="M94.7842 20.8027L70.4259 25.065C73.1274 32.941 66.2837 50.1293 66.2837 50.1293C66.2837 50.1293 82.9878 43.0872 90.6419 45.867L94.7842 20.8027Z" fill="#6B8C86" fill-opacity="0.65"/>
<path d="M65.1129 51.334L54.9824 56.1523L50.2998 66.5764L60.4303 61.7581L65.1129 51.334Z" fill="#6B8C86" fill-opacity="0.65"/>
<path d="M64.5727 25.389L64.2125 25.25C62.4115 25.7596 55.4327 28.6784 50.8402 43.2258L54.3071 51.3798L62.2764 47.9051C68.6699 34.0526 65.5632 27.0568 64.5727 25.389Z" fill="#6B8C86" fill-opacity="0.65"/>
<path d="M46.0226 74.2185C47.7632 74.2185 49.1743 72.7666 49.1743 70.9755C49.1743 69.1844 47.7632 67.7324 46.0226 67.7324C44.2819 67.7324 42.8708 69.1844 42.8708 70.9755C42.8708 72.7666 44.2819 74.2185 46.0226 74.2185Z" fill="#6B8C86" fill-opacity="0.65"/>
</svg>
