<svg width="115" height="110" viewBox="0 0 115 110" fill="none" xmlns="http://www.w3.org/2000/svg">
<path d="M69.0226 -32L54.7048 -11.2444C62.0438 -7.6307 69.0226 9.5112 69.0226 9.5112C69.0226 9.5112 76.0014 -7.6307 83.3404 -11.2444L69.0226 -32Z" fill="#6B8C86" fill-opacity="0.65"/>
<path d="M69.0225 11.1797L65.1504 21.9744L69.0225 32.7692L72.8496 21.9744L69.0225 11.1797Z" fill="#6B8C86" fill-opacity="0.65"/>
<path d="M50.7878 -6.79492L50.4276 -6.65594C49.4821 -4.98808 46.5555 2.14664 53.3542 15.7675L61.4136 19.0106L64.6553 10.7639C59.6576 -3.64454 52.6338 -6.33163 50.7878 -6.79492Z" fill="#6B8C86" fill-opacity="0.65"/>
<path d="M20.2161 -11.1973L24.3583 13.867C32.0125 11.0872 48.7166 18.1293 48.7166 18.1293C48.7166 18.1293 41.8728 0.941031 44.5743 -6.93498L20.2161 -11.1973Z" fill="#6B8C86" fill-opacity="0.65"/>
<path d="M49.8872 19.334L54.5698 29.7581L64.7453 34.5764L60.0177 24.1523L49.8872 19.334Z" fill="#6B8C86" fill-opacity="0.65"/>
<path d="M24.6734 19.8891L24.5383 20.2597C25.0336 22.1129 27.8701 29.294 42.0078 34.0196L49.9321 30.4522L46.5553 22.2519C33.093 15.6731 26.2943 18.8699 24.6734 19.8891Z" fill="#6B8C86" fill-opacity="0.65"/>
<path d="M0 38.9789L20.171 53.7116C23.6829 46.1599 40.3419 38.9789 40.3419 38.9789C40.3419 38.9789 23.6829 31.7978 20.171 24.2461L0 38.9789Z" fill="#6B8C86" fill-opacity="0.65"/>
<path d="M41.9629 38.9751L52.4536 42.9594L62.9443 38.9751L52.4536 35.0371L41.9629 38.9751Z" fill="#6B8C86" fill-opacity="0.65"/>
<path d="M24.4934 57.7382L24.6285 58.1089C26.2494 59.0818 33.1831 62.0932 46.4203 55.0974L49.572 46.8044L41.5577 43.4688C27.6001 48.6113 24.9887 55.8387 24.4934 57.7382Z" fill="#6B8C86" fill-opacity="0.65"/>
<path d="M20.2161 89.1996L44.5743 84.9373C41.8728 77.0613 48.7166 59.873 48.7166 59.873C48.7166 59.873 31.9674 66.9151 24.3133 64.1354L20.2161 89.1996Z" fill="#6B8C86" fill-opacity="0.65"/>
<path d="M49.8872 58.6682L60.0177 53.8499L64.7453 43.4258L54.5698 48.2441L49.8872 58.6682Z" fill="#6B8C86" fill-opacity="0.65"/>
<path d="M50.4273 84.61L50.7875 84.749C52.5885 84.2393 59.5673 81.3206 64.1598 66.7731L60.6929 58.6191L52.7236 62.0939C46.3301 75.9464 49.4368 82.9421 50.4273 84.61Z" fill="#6B8C86" fill-opacity="0.65"/>
<path d="M69.0226 110.001L83.3404 89.2458C76.0014 85.6321 69.0226 68.4902 69.0226 68.4902C69.0226 68.4902 62.0438 85.6321 54.7048 89.2458L69.0226 110.001Z" fill="#6B8C86" fill-opacity="0.65"/>
<path d="M69.0225 66.8219L72.8496 56.0272L69.0225 45.2324L65.1504 56.0272L69.0225 66.8219Z" fill="#6B8C86" fill-opacity="0.65"/>
<path d="M87.2123 84.7957L87.5725 84.6567C88.518 82.9889 91.4446 75.8542 84.6459 62.2333L76.5865 58.9902L73.3447 67.2369C78.3424 81.6453 85.3663 84.3324 87.2123 84.7957Z" fill="#6B8C86" fill-opacity="0.65"/>
<path d="M117.784 89.1996L113.642 64.1354C105.988 66.9151 89.2837 59.873 89.2837 59.873C89.2837 59.873 96.1274 77.0613 93.4259 84.9373L117.784 89.1996Z" fill="#6B8C86" fill-opacity="0.65"/>
<path d="M88.1129 58.6682L83.4303 48.2441L73.2998 43.4258L77.9824 53.8499L88.1129 58.6682Z" fill="#6B8C86" fill-opacity="0.65"/>
<path d="M113.327 58.111L113.462 57.7403C112.966 55.8871 110.13 48.7061 95.9922 43.9805L88.0679 47.5478L91.4447 55.7482C104.907 62.327 111.706 59.1302 113.327 58.111Z" fill="#6B8C86" fill-opacity="0.65"/>
<path d="M138 38.9789L117.829 24.2461C114.317 31.7978 97.6582 38.9789 97.6582 38.9789C97.6582 38.9789 114.317 46.1599 117.829 53.7116L138 38.9789Z" fill="#6B8C86" fill-opacity="0.65"/>
<path d="M96.0371 38.9751L85.5464 35.0371L75.0557 38.9751L85.5464 42.9594L96.0371 38.9751Z" fill="#6B8C86" fill-opacity="0.65"/>
<path d="M113.507 20.2575L113.372 19.8868C111.751 18.9139 104.817 15.9025 91.5797 22.8983L88.428 31.1912L96.4423 34.5269C110.445 29.3844 113.056 22.157 113.507 20.2575Z" fill="#6B8C86" fill-opacity="0.65"/>
<path d="M117.784 -11.1973L93.4259 -6.93498C96.1274 0.941031 89.2837 18.1293 89.2837 18.1293C89.2837 18.1293 105.988 11.0872 113.642 13.867L117.784 -11.1973Z" fill="#6B8C86" fill-opacity="0.65"/>
<path d="M88.1129 19.334L77.9824 24.1523L73.2998 34.5764L83.4303 29.7581L88.1129 19.334Z" fill="#6B8C86" fill-opacity="0.65"/>
<path d="M87.5728 -6.61102L87.2126 -6.75C85.4116 -6.24038 78.4328 -3.32162 73.8403 11.2258L77.3072 19.3798L85.2766 15.9051C91.67 2.05261 88.5633 -4.94316 87.5728 -6.61102Z" fill="#6B8C86" fill-opacity="0.65"/>
<path d="M69.0226 42.2185C70.7632 42.2185 72.1743 40.7666 72.1743 38.9755C72.1743 37.1844 70.7632 35.7324 69.0226 35.7324C67.2819 35.7324 65.8708 37.1844 65.8708 38.9755C65.8708 40.7666 67.2819 42.2185 69.0226 42.2185Z" fill="#6B8C86" fill-opacity="0.65"/>
</svg>
