<svg width="265" height="194" viewBox="0 0 265 194" fill="none" xmlns="http://www.w3.org/2000/svg">
<path d="M139.7 30C139.7 30 139.5 32.6 137 32.9C139.5 33.2 139.7 35.8 139.7 35.8C139.7 35.8 139.9 33.2 142.4 32.9C139.9 32.7 139.7 30 139.7 30Z" fill="#9BAFA8"/>
<path d="M41.7 20C41.7 20 41.5 22.6 39 22.9C41.5 23.2 41.7 25.8 41.7 25.8C41.7 25.8 41.9 23.2 44.4 22.9C41.9 22.7 41.7 20 41.7 20Z" fill="#9BAFA8"/>
<path d="M261.7 89C261.7 89 261.5 91.6 259 91.9C261.5 92.2 261.7 94.8 261.7 94.8C261.7 94.8 261.9 92.2 264.4 91.9C261.8 91.7 261.7 89 261.7 89Z" fill="#9BAFA8"/>
<path d="M145.3 148.6C145.3 148.6 145.1 151.2 142.6 151.5C145.1 151.8 145.3 154.4 145.3 154.4C145.3 154.4 145.5 151.8 148 151.5C145.4 151.3 145.3 148.6 145.3 148.6Z" fill="#9BAFA8"/>
<path d="M101.1 59C101.1 59 100.6 66 94 66.6C100.6 67.3 101.1 74.2 101.1 74.2C101.1 74.2 101.6 67.2 108.2 66.6C101.6 66 101.1 59 101.1 59Z" fill="#9BAFA8"/>
<path d="M94.2 -11C94.2 -11 93.8 -5.9 89 -5.4C93.8 -4.9 94.2 0.199999 94.2 0.199999C94.2 0.199999 94.6 -4.9 99.4 -5.4C94.6 -6 94.2 -11 94.2 -11Z" fill="#9BAFA8"/>
<path d="M20.6 84C20.6 84 20.3 88.5 16 89C20.3 89.4 20.6 94 20.6 94C20.6 94 20.9 89.5 25.2 89C21 88.5 20.6 84 20.6 84Z" fill="#9BAFA8"/>
<path d="M61.4999 183.9C61.4999 183.9 61.1999 188.4 56.8999 188.9C61.1999 189.3 61.4999 193.9 61.4999 193.9C61.4999 193.9 61.7999 189.4 66.0999 188.9C61.7999 188.4 61.4999 183.9 61.4999 183.9Z" fill="#9BAFA8"/>
</svg>
